{
  "accessors": [
    {
      "bufferView": 2,
      "componentType": 5126,
      "count": 65532,
      "max": [
        0.009349348023533821,
        -5.212143150856718e-06,
        0.01005037222057581
      ],
      "min": [
        -0.00920873787254095,
        -0.0026568954344838858,
        -0.00849608238786459
      ],
      "type": "VEC3"
    },
    {
      "bufferView": 2,
      "byteOffset": 786384,
      "componentType": 5126,
      "count": 65532,
      "max": [
        0.9999450445175171,
        0.9999997019767761,
        0.9999184608459473
      ],
      "min": [
        -0.9999090433120728,
        -0.9999999403953552,
        -0.9996578097343445
      ],
      "type": "VEC3"
    },
    {
      "bufferView": 1,
      "componentType": 5126,
      "count": 65532,
      "max": [
        0.9995051622390747,
        0.9995115995407104
      ],
      "min": [
        0.00048828125,
        0.0004892541328445077
      ],
      "type": "VEC2"
    },
    {
      "bufferView": 0,
      "componentType": 5125,
      "count": 336270,
      "type": "SCALAR"
    },
    {
      "bufferView": 2,
      "byteOffset": 1572768,
      "componentType": 5126,
      "count": 15776,
      "max": [
        0.009196322411298752,
        -3.1958345061866567e-05,
        0.010045683942735195
      ],
      "min": [
        -0.00889503676444292,
        -0.0026154611259698868,
        -0.008370415307581425
      ],
      "type": "VEC3"
    },
    {
      "bufferView": 2,
      "byteOffset": 1762080,
      "componentType": 5126,
      "count": 15776,
      "max": [
        0.9997673630714417,
        0.9999850988388062,
        0.999819815158844
      ],
      "min": [
        -0.9966530203819275,
        -0.9999992847442627,
        -0.9992823004722595
      ],
      "type": "VEC3"
    },
    {
      "bufferView": 1,
      "byteOffset": 524256,
      "componentType": 5126,
      "count": 15776,
      "max": [
        0.9993495345115662,
        0.9935939311981201
      ],
      "min": [
        0.00048828125,
        0.0004949761787429452
      ],
      "type": "VEC2"
    },
    {
      "bufferView": 0,
      "byteOffset": 1345080,
      "componentType": 5125,
      "count": 48996,
      "type": "SCALAR"
    }
  ],
  "asset": {
    "extras": {
      "author": "Global Digital Heritage (https://sketchfab.com/GlobalDigitalHeritage)",
      "license": "CC-BY-NC-4.0 (http://creativecommons.org/licenses/by-nc/4.0/)",
      "source": "https://sketchfab.com/3d-models/roman-silver-coin-castilla-la-mancha-spain-956d0e523daf4c7e9b7da7f4424970a8",
      "title": "Roman Silver Coin, Castilla-La Mancha, Spain"
    },
    "generator": "Sketchfab-12.65.0",
    "version": "2.0"
  },
  "bufferViews": [
    {
      "buffer": 0,
      "byteLength": 1541064,
      "name": "floatBufferViews",
      "target": 34963
    },
    {
      "buffer": 0,
      "byteLength": 650464,
      "byteOffset": 1541064,
      "byteStride": 8,
      "name": "floatBufferViews",
      "target": 34962
    },
    {
      "buffer": 0,
      "byteLength": 1951392,
      "byteOffset": 2191528,
      "byteStride": 12,
      "name": "floatBufferViews",
      "target": 34962
    }
  ],
  "buffers": [
    {
      "byteLength": 4142920,
      "uri": "scene.bin"
    }
  ],
  "images": [
    {
      "uri": "textures/Denario_7_Model_8_u1_v1_baseColor.jpeg"
    }
  ],
  "materials": [
    {
      "doubleSided": true,
      "name": "Denario_7_Model_8_u1_v1",
      "pbrMetallicRoughness": {
        "baseColorTexture": {
          "index": 0
        },
        "metallicFactor": 0.0
      }
    }
  ],
  "meshes": [
    {
      "name": "Object_0",
      "primitives": [
        {
          "attributes": {
            "NORMAL": 1,
            "POSITION": 0,
            "TEXCOORD_0": 2
          },
          "indices": 3,
          "material": 0,
          "mode": 4
        }
      ]
    },
    {
      "name": "Object_1",
      "primitives": [
        {
          "attributes": {
            "NORMAL": 5,
            "POSITION": 4,
            "TEXCOORD_0": 6
          },
          "indices": 7,
          "material": 0,
          "mode": 4
        }
      ]
    }
  ],
  "nodes": [
    {
      "children": [
        1
      ],
      "matrix": [
        1.0,
        0.0,
        0.0,
        0.0,
        0.0,
        2.220446049250313e-16,
        -1.0,
        0.0,
        0.0,
        1.0,
        2.220446049250313e-16,
        0.0,
        0.0,
        0.0,
        0.0,
        1.0
      ],
      "name": "Sketchfab_model"
    },
    {
      "children": [
        2,
        3
      ],
      "name": "Denario_7_Model_8.obj.cleaner.materialmerger.gles"
    },
    {
      "mesh": 0,
      "name": "Object_2"
    },
    {
      "mesh": 1,
      "name": "Object_3"
    }
  ],
  "samplers": [
    {
      "magFilter": 9729,
      "minFilter": 9987,
      "wrapS": 10497,
      "wrapT": 10497
    }
  ],
  "scene": 0,
  "scenes": [
    {
      "name": "Sketchfab_Scene",
      "nodes": [
        0
      ]
    }
  ],
  "textures": [
    {
      "sampler": 0,
      "source": 0
    }
  ]
}
