<?xml version="1.0" encoding="utf-8"?>
<!-- Generator: Adobe Illustrator 19.0.0, SVG Export Plug-In . SVG Version: 6.00 Build 0)  -->
<svg version="1.1" id="Layer_1" xmlns="http://www.w3.org/2000/svg" xmlns:xlink="http://www.w3.org/1999/xlink" x="0px" y="0px"
	 viewBox="234 -689.7 1080 2170.7" style="enable-background:new 234 -689.7 1080 2170.7;" xml:space="preserve">
<style type="text/css">
	.st0{fill:none;stroke:#666666;stroke-miterlimit:10;}
	.st1{fill:#858585;stroke:#BFBFBF;stroke-width:3;stroke-miterlimit:10;}
</style>
<g id="Layer_1_1_">
	<rect id="XMLID_1_" x="230.5" y="-689.7" class="st0" width="1087" height="2170.7"/>
</g>
<g id="XMLID_2_">
	<line id="XMLID_4_" class="st1" x1="237.5" y1="305" x2="1324.3" y2="305"/>
	<line id="XMLID_3_" class="st1" x1="237.5" y1="403.8" x2="1324.3" y2="403.8"/>
	<line id="XMLID_5_" class="st1" x1="237.5" y1="206.2" x2="1324.3" y2="206.2"/>
	<line id="XMLID_6_" class="st1" x1="237.5" y1="107.4" x2="1324.3" y2="107.4"/>
	<line id="XMLID_7_" class="st1" x1="237.5" y1="8.6" x2="1324.3" y2="8.6"/>
	<line id="XMLID_8_" class="st1" x1="237.5" y1="-90.2" x2="1324.3" y2="-90.2"/>
	<line id="XMLID_9_" class="st1" x1="237.5" y1="-189" x2="1324.3" y2="-189"/>
	<line id="XMLID_10_" class="st1" x1="237.5" y1="-287.8" x2="1324.3" y2="-287.8"/>
	<line id="XMLID_11_" class="st1" x1="237.5" y1="-386.6" x2="1324.3" y2="-386.6"/>
	<line id="XMLID_12_" class="st1" x1="237.5" y1="-485.4" x2="1324.3" y2="-485.4"/>
	<line id="XMLID_13_" class="st1" x1="237.5" y1="-584.2" x2="1324.3" y2="-584.2"/>
	<line id="XMLID_14_" class="st1" x1="1225.5" y1="-683" x2="1225.5" y2="403.8"/>
	<line id="XMLID_15_" class="st1" x1="1126.7" y1="-683" x2="1126.7" y2="403.8"/>
	<line id="XMLID_16_" class="st1" x1="1027.9" y1="-683" x2="1027.9" y2="403.8"/>
	<line id="XMLID_17_" class="st1" x1="929.1" y1="-683" x2="929.1" y2="403.8"/>
	<line id="XMLID_18_" class="st1" x1="830.3" y1="-683" x2="830.3" y2="403.8"/>
	<line id="XMLID_19_" class="st1" x1="731.5" y1="-683" x2="731.5" y2="403.8"/>
	<line id="XMLID_20_" class="st1" x1="632.7" y1="-683" x2="632.7" y2="403.8"/>
	<line id="XMLID_21_" class="st1" x1="533.9" y1="-683" x2="533.9" y2="403.8"/>
	<line id="XMLID_22_" class="st1" x1="435.1" y1="-683" x2="435.1" y2="403.8"/>
	<line id="XMLID_23_" class="st1" x1="336.3" y1="-683" x2="336.3" y2="403.8"/>
</g>
<g id="XMLID_25_">
	<line id="XMLID_49_" class="st1" x1="237.5" y1="1391.9" x2="1324.3" y2="1391.9"/>
	<line id="XMLID_48_" class="st1" x1="237.5" y1="1293.1" x2="1324.3" y2="1293.1"/>
	<line id="XMLID_47_" class="st1" x1="237.5" y1="1194.3" x2="1324.3" y2="1194.3"/>
	<line id="XMLID_46_" class="st1" x1="237.5" y1="1095.5" x2="1324.3" y2="1095.5"/>
	<line id="XMLID_45_" class="st1" x1="237.5" y1="996.7" x2="1324.3" y2="996.7"/>
	<line id="XMLID_44_" class="st1" x1="237.5" y1="897.8" x2="1324.3" y2="897.8"/>
	<line id="XMLID_43_" class="st1" x1="237.5" y1="799" x2="1324.3" y2="799"/>
	<line id="XMLID_42_" class="st1" x1="237.5" y1="700.2" x2="1324.3" y2="700.2"/>
	<line id="XMLID_41_" class="st1" x1="237.5" y1="601.4" x2="1324.3" y2="601.4"/>
	<line id="XMLID_40_" class="st1" x1="237.5" y1="502.6" x2="1324.3" y2="502.6"/>
	<line id="XMLID_39_" class="st1" x1="1225.5" y1="403.8" x2="1225.5" y2="1490.7"/>
	<line id="XMLID_35_" class="st1" x1="1126.7" y1="403.8" x2="1126.7" y2="1490.7"/>
	<line id="XMLID_34_" class="st1" x1="1027.9" y1="403.8" x2="1027.9" y2="1490.7"/>
	<line id="XMLID_33_" class="st1" x1="929.1" y1="403.8" x2="929.1" y2="1490.7"/>
	<line id="XMLID_31_" class="st1" x1="830.3" y1="403.8" x2="830.3" y2="1490.7"/>
	<line id="XMLID_30_" class="st1" x1="731.5" y1="403.8" x2="731.5" y2="1490.7"/>
	<line id="XMLID_29_" class="st1" x1="632.7" y1="403.8" x2="632.7" y2="1490.7"/>
	<line id="XMLID_28_" class="st1" x1="533.9" y1="403.8" x2="533.9" y2="1490.7"/>
	<line id="XMLID_27_" class="st1" x1="435.1" y1="403.8" x2="435.1" y2="1490.7"/>
	<line id="XMLID_26_" class="st1" x1="336.3" y1="403.8" x2="336.3" y2="1490.7"/>
</g>
</svg>
