{
  "accessors": [
    {
      "bufferView": 2,
      "componentType": 5126,
      "count": 243,
      "max": [
        0.025528399273753166,
        -0.8624629974365234,
        0.019968900829553604
      ],
      "min": [
        -0.025528399273753166,
        -1.0,
        -0.03371540084481239
      ],
      "type": "VEC3"
    },
    {
      "bufferView": 2,
      "byteOffset": 2916,
      "componentType": 5126,
      "count": 243,
      "max": [
        0.9510568976402283,
        1.0,
        1.0
      ],
      "min": [
        -0.9510564804077148,
        -1.0,
        -1.0
      ],
      "type": "VEC3"
    },
    {
      "bufferView": 3,
      "componentType": 5126,
      "count": 243,
      "max": [
        0.9907996654510498,
        0.9643679857254028,
        0.9883244633674622,
        1.0
      ],
      "min": [
        -0.9999136924743652,
        -0.198711559176445,
        -0.9962013959884644,
        1.0
      ],
      "type": "VEC4"
    },
    {
      "bufferView": 1,
      "componentType": 5126,
      "count": 243,
      "max": [
        0.6285060048103333,
        0.3041140139102936
      ],
      "min": [
        0.32583901286125183,
        0.006759060081094503
      ],
      "type": "VEC2"
    },
    {
      "bufferView": 0,
      "componentType": 5125,
      "count": 1290,
      "type": "SCALAR"
    },
    {
      "bufferView": 2,
      "byteOffset": 5832,
      "componentType": 5126,
      "count": 242,
      "max": [
        -0.2506450116634369,
        0.7210839986801147,
        0.02609279938042164
      ],
      "min": [
        -0.2875460088253021,
        0.3057900071144104,
        0.006022490095347166
      ],
      "type": "VEC3"
    },
    {
      "bufferView": 2,
      "byteOffset": 8736,
      "componentType": 5126,
      "count": 242,
      "max": [
        0.0,
        0.9999760985374451,
        1.0
      ],
      "min": [
        0.0,
        -0.042500220239162445,
        0.006923690903931856
      ],
      "type": "VEC3"
    },
    {
      "bufferView": 3,
      "byteOffset": 3888,
      "componentType": 5126,
      "count": 242,
      "max": [
        1.0,
        0.030336005613207817,
        0.022385668009519577,
        1.0
      ],
      "min": [
        0.999437153339386,
        -0.03293734788894653,
        -0.021180657669901848,
        1.0
      ],
      "type": "VEC4"
    },
    {
      "bufferView": 1,
      "byteOffset": 1944,
      "componentType": 5126,
      "count": 242,
      "max": [
        0.8772029876708984,
        0.4979209899902344
      ],
      "min": [
        0.8331159949302673,
        1.590339948620567e-08
      ],
      "type": "VEC2"
    },
    {
      "bufferView": 0,
      "byteOffset": 5160,
      "componentType": 5125,
      "count": 1260,
      "type": "SCALAR"
    },
    {
      "bufferView": 2,
      "byteOffset": 11640,
      "componentType": 5126,
      "count": 196,
      "max": [
        0.3162519931793213,
        0.7391989827156067,
        0.03371540084481239
      ],
      "min": [
        -0.3162519931793213,
        0.6958140134811401,
        -0.0074086799286305904
      ],
      "type": "VEC3"
    },
    {
      "bufferView": 2,
      "byteOffset": 13992,
      "componentType": 5126,
      "count": 196,
      "max": [
        1.0,
        0.9406810998916626,
        0.9999823570251465
      ],
      "min": [
        -1.0,
        -0.940679669380188,
        -0.9999823570251465
      ],
      "type": "VEC3"
    },
    {
      "bufferView": 3,
      "byteOffset": 7760,
      "componentType": 5126,
      "count": 196,
      "max": [
        0.49920934438705444,
        0.9999824166297913,
        0.9778560400009155,
        1.0
      ],
      "min": [
        -0.49904635548591614,
        -0.9999800324440002,
        -0.9732714295387268,
        1.0
      ],
      "type": "VEC4"
    },
    {
      "bufferView": 1,
      "byteOffset": 3880,
      "componentType": 5126,
      "count": 196,
      "max": [
        0.9906060099601746,
        0.7638490200042725
      ],
      "min": [
        0.7401670217514038,
        0.009257270023226738
      ],
      "type": "VEC2"
    },
    {
      "bufferView": 0,
      "byteOffset": 10200,
      "componentType": 5125,
      "count": 960,
      "type": "SCALAR"
    },
    {
      "bufferView": 2,
      "byteOffset": 16344,
      "componentType": 5126,
      "count": 735,
      "max": [
        0.2339009940624237,
        0.7179999947547913,
        0.025561600923538208
      ],
      "min": [
        -0.2339009940624237,
        0.16367100179195404,
        0.005491349846124649
      ],
      "type": "VEC3"
    },
    {
      "bufferView": 2,
      "byteOffset": 25164,
      "componentType": 5126,
      "count": 735,
      "max": [
        3.348279506099061e-06,
        0.9999760985374451,
        1.0
      ],
      "min": [
        -3.3482995149825e-06,
        -0.042500417679548264,
        0.006925000809133053
      ],
      "type": "VEC3"
    },
    {
      "bufferView": 3,
      "byteOffset": 10896,
      "componentType": 5126,
      "count": 735,
      "max": [
        1.0,
        0.0143917640671134,
        0.01986476220190525,
        1.0
      ],
      "min": [
        0.9998027086257935,
        -0.014391743578016758,
        -0.0198647640645504,
        1.0
      ],
      "type": "VEC4"
    },
    {
      "bufferView": 1,
      "byteOffset": 5448,
      "componentType": 5126,
      "count": 735,
      "max": [
        0.5789219737052917,
        0.9919520020484924
      ],
      "min": [
        0.020772799849510193,
        0.3166300058364868
      ],
      "type": "VEC2"
    },
    {
      "bufferView": 0,
      "byteOffset": 14040,
      "componentType": 5125,
      "count": 3360,
      "type": "SCALAR"
    },
    {
      "bufferView": 2,
      "byteOffset": 33984,
      "componentType": 5126,
      "count": 242,
      "max": [
        0.2861030101776123,
        0.7210839986801147,
        0.02609279938042164
      ],
      "min": [
        0.2492009997367859,
        0.3057900071144104,
        0.006022490095347166
      ],
      "type": "VEC3"
    },
    {
      "bufferView": 2,
      "byteOffset": 36888,
      "componentType": 5126,
      "count": 242,
      "max": [
        0.0,
        0.9999760985374451,
        1.0
      ],
      "min": [
        0.0,
        -0.04250011965632439,
        0.006923690903931856
      ],
      "type": "VEC3"
    },
    {
      "bufferView": 3,
      "byteOffset": 22656,
      "componentType": 5126,
      "count": 242,
      "max": [
        1.0,
        0.03049504943192005,
        0.021772252395749092,
        1.0
      ],
      "min": [
        0.999454140663147,
        -0.03291545435786247,
        -0.020935041829943657,
        1.0
      ],
      "type": "VEC4"
    },
    {
      "bufferView": 1,
      "byteOffset": 11328,
      "componentType": 5126,
      "count": 242,
      "max": [
        0.9207599759101868,
        0.4979200065135956
      ],
      "min": [
        0.8766760230064392,
        -2.1765899305137282e-07
      ],
      "type": "VEC2"
    },
    {
      "bufferView": 0,
      "byteOffset": 27480,
      "componentType": 5125,
      "count": 1260,
      "type": "SCALAR"
    },
    {
      "bufferView": 2,
      "byteOffset": 39792,
      "componentType": 5126,
      "count": 66,
      "max": [
        0.018285000696778297,
        0.7353770136833191,
        0.012352799996733665
      ],
      "min": [
        -0.018285000696778297,
        -0.8624629974365234,
        -0.026099300011992455
      ],
      "type": "VEC3"
    },
    {
      "bufferView": 2,
      "byteOffset": 40584,
      "componentType": 5126,
      "count": 66,
      "max": [
        0.9510565400123596,
        0.02740011364221573,
        1.0
      ],
      "min": [
        -0.9510565400123596,
        -0.00533940177410841,
        -1.0
      ],
      "type": "VEC3"
    },
    {
      "bufferView": 3,
      "byteOffset": 26528,
      "componentType": 5126,
      "count": 66,
      "max": [
        0.999968945980072,
        0.06818719953298569,
        0.9510523080825806,
        1.0
      ],
      "min": [
        -0.9999999403953552,
        -0.02774403989315033,
        -0.9510844349861145,
        1.0
      ],
      "type": "VEC4"
    },
    {
      "bufferView": 1,
      "byteOffset": 13264,
      "componentType": 5126,
      "count": 66,
      "max": [
        0.7256199717521667,
        0.9944329857826233
      ],
      "min": [
        0.6436529755592346,
        0.005567159969359636
      ],
      "type": "VEC2"
    },
    {
      "bufferView": 0,
      "byteOffset": 32520,
      "componentType": 5125,
      "count": 240,
      "type": "SCALAR"
    },
    {
      "bufferView": 2,
      "byteOffset": 41376,
      "componentType": 5126,
      "count": 336,
      "max": [
        0.024850299581885338,
        1.0,
        0.019255900755524635
      ],
      "min": [
        -0.024850299581885338,
        0.7353770136833191,
        -0.033002398908138275
      ],
      "type": "VEC3"
    },
    {
      "bufferView": 2,
      "byteOffset": 45408,
      "componentType": 5126,
      "count": 336,
      "max": [
        0.9508653283119202,
        1.0,
        0.9997986555099487
      ],
      "min": [
        -0.9508653283119202,
        -0.8629145622253418,
        -0.9997986555099487
      ],
      "type": "VEC3"
    },
    {
      "bufferView": 3,
      "byteOffset": 27584,
      "componentType": 5126,
      "count": 336,
      "max": [
        0.9999989867210388,
        0.6691440343856812,
        0.9867444634437561,
        1.0
      ],
      "min": [
        -0.9991152882575989,
        -0.644967257976532,
        -0.9873162508010864,
        -1.0
      ],
      "type": "VEC4"
    },
    {
      "bufferView": 1,
      "byteOffset": 13792,
      "componentType": 5126,
      "count": 336,
      "max": [
        0.9304720163345337,
        0.9805520176887512
      ],
      "min": [
        0.793487012386322,
        0.7722340226173401
      ],
      "type": "VEC2"
    },
    {
      "bufferView": 0,
      "byteOffset": 33480,
      "componentType": 5125,
      "count": 1770,
      "type": "SCALAR"
    }
  ],
  "asset": {
    "extras": {
      "author": "Tomsearle16 (https://sketchfab.com/Tomsearle16)",
      "license": "CC-BY-4.0 (http://creativecommons.org/licenses/by/4.0/)",
      "source": "https://sketchfab.com/3d-models/roman-standard-4ba4f2e92c8148f29e4ef30bb035e1ab",
      "title": "Roman Standard"
    },
    "generator": "Sketchfab-12.68.0",
    "version": "2.0"
  },
  "bufferViews": [
    {
      "buffer": 0,
      "byteLength": 40560,
      "name": "floatBufferViews",
      "target": 34963
    },
    {
      "buffer": 0,
      "byteLength": 16480,
      "byteOffset": 40560,
      "byteStride": 8,
      "name": "floatBufferViews",
      "target": 34962
    },
    {
      "buffer": 0,
      "byteLength": 49440,
      "byteOffset": 57040,
      "byteStride": 12,
      "name": "floatBufferViews",
      "target": 34962
    },
    {
      "buffer": 0,
      "byteLength": 32960,
      "byteOffset": 106480,
      "byteStride": 16,
      "name": "floatBufferViews",
      "target": 34962
    }
  ],
  "buffers": [
    {
      "byteLength": 139440,
      "uri": "scene.bin"
    }
  ],
  "images": [
    {
      "uri": "textures/Top_Metal_baseColor.jpeg"
    },
    {
      "uri": "textures/Top_Metal_metallicRoughness.png"
    },
    {
      "uri": "textures/Top_Metal_normal.png"
    },
    {
      "uri": "textures/Wood2_baseColor.jpeg"
    },
    {
      "uri": "textures/Wood2_metallicRoughness.png"
    },
    {
      "uri": "textures/Wood2_normal.png"
    },
    {
      "uri": "textures/Red_Flag_Right_baseColor.jpeg"
    },
    {
      "uri": "textures/Red_Flag_Right_metallicRoughness.png"
    },
    {
      "uri": "textures/Red_Flag_Right_normal.png"
    },
    {
      "uri": "textures/Main_Flag_baseColor.jpeg"
    },
    {
      "uri": "textures/Main_Flag_metallicRoughness.png"
    },
    {
      "uri": "textures/Main_Flag_normal.png"
    },
    {
      "uri": "textures/Wood1_baseColor.jpeg"
    },
    {
      "uri": "textures/Wood1_metallicRoughness.png"
    },
    {
      "uri": "textures/Wood1_normal.png"
    },
    {
      "uri": "textures/Red_Flag_Left_baseColor.jpeg"
    },
    {
      "uri": "textures/Red_Flag_Left_metallicRoughness.png"
    },
    {
      "uri": "textures/Red_Flag_Left_normal.png"
    },
    {
      "uri": "textures/StingrayPBS1_baseColor.jpeg"
    },
    {
      "uri": "textures/StingrayPBS1_metallicRoughness.png"
    },
    {
      "uri": "textures/StingrayPBS1_normal.png"
    }
  ],
  "materials": [
    {
      "doubleSided": true,
      "name": "Top_Metal",
      "normalTexture": {
        "index": 2
      },
      "occlusionTexture": {
        "index": 1
      },
      "pbrMetallicRoughness": {
        "baseColorTexture": {
          "index": 0
        },
        "metallicRoughnessTexture": {
          "index": 1
        }
      }
    },
    {
      "doubleSided": true,
      "name": "Wood2",
      "normalTexture": {
        "index": 5
      },
      "occlusionTexture": {
        "index": 4
      },
      "pbrMetallicRoughness": {
        "baseColorTexture": {
          "index": 3
        },
        "metallicRoughnessTexture": {
          "index": 4
        }
      }
    },
    {
      "doubleSided": true,
      "name": "Red_Flag_Right",
      "normalTexture": {
        "index": 8
      },
      "occlusionTexture": {
        "index": 7
      },
      "pbrMetallicRoughness": {
        "baseColorTexture": {
          "index": 6
        },
        "metallicRoughnessTexture": {
          "index": 7
        }
      }
    },
    {
      "doubleSided": true,
      "name": "Main_Flag",
      "normalTexture": {
        "index": 11
      },
      "occlusionTexture": {
        "index": 10
      },
      "pbrMetallicRoughness": {
        "baseColorTexture": {
          "index": 9
        },
        "metallicRoughnessTexture": {
          "index": 10
        }
      }
    },
    {
      "doubleSided": true,
      "name": "Wood1",
      "normalTexture": {
        "index": 14
      },
      "occlusionTexture": {
        "index": 13
      },
      "pbrMetallicRoughness": {
        "baseColorTexture": {
          "index": 12
        },
        "metallicRoughnessTexture": {
          "index": 13
        }
      }
    },
    {
      "doubleSided": true,
      "name": "Red_Flag_Left",
      "normalTexture": {
        "index": 17
      },
      "occlusionTexture": {
        "index": 16
      },
      "pbrMetallicRoughness": {
        "baseColorTexture": {
          "index": 15
        },
        "metallicRoughnessTexture": {
          "index": 16
        }
      }
    },
    {
      "doubleSided": true,
      "name": "StingrayPBS1",
      "normalTexture": {
        "index": 20
      },
      "occlusionTexture": {
        "index": 19
      },
      "pbrMetallicRoughness": {
        "baseColorTexture": {
          "index": 18
        },
        "metallicRoughnessTexture": {
          "index": 19
        }
      }
    }
  ],
  "meshes": [
    {
      "name": "defaultMaterial",
      "primitives": [
        {
          "attributes": {
            "NORMAL": 1,
            "POSITION": 0,
            "TANGENT": 2,
            "TEXCOORD_0": 3
          },
          "indices": 4,
          "material": 6,
          "mode": 4
        }
      ]
    },
    {
      "name": "defaultMaterial",
      "primitives": [
        {
          "attributes": {
            "NORMAL": 6,
            "POSITION": 5,
            "TANGENT": 7,
            "TEXCOORD_0": 8
          },
          "indices": 9,
          "material": 5,
          "mode": 4
        }
      ]
    },
    {
      "name": "defaultMaterial",
      "primitives": [
        {
          "attributes": {
            "NORMAL": 11,
            "POSITION": 10,
            "TANGENT": 12,
            "TEXCOORD_0": 13
          },
          "indices": 14,
          "material": 4,
          "mode": 4
        }
      ]
    },
    {
      "name": "defaultMaterial",
      "primitives": [
        {
          "attributes": {
            "NORMAL": 16,
            "POSITION": 15,
            "TANGENT": 17,
            "TEXCOORD_0": 18
          },
          "indices": 19,
          "material": 3,
          "mode": 4
        }
      ]
    },
    {
      "name": "defaultMaterial",
      "primitives": [
        {
          "attributes": {
            "NORMAL": 21,
            "POSITION": 20,
            "TANGENT": 22,
            "TEXCOORD_0": 23
          },
          "indices": 24,
          "material": 2,
          "mode": 4
        }
      ]
    },
    {
      "name": "defaultMaterial",
      "primitives": [
        {
          "attributes": {
            "NORMAL": 26,
            "POSITION": 25,
            "TANGENT": 27,
            "TEXCOORD_0": 28
          },
          "indices": 29,
          "material": 1,
          "mode": 4
        }
      ]
    },
    {
      "name": "defaultMaterial",
      "primitives": [
        {
          "attributes": {
            "NORMAL": 31,
            "POSITION": 30,
            "TANGENT": 32,
            "TEXCOORD_0": 33
          },
          "indices": 34,
          "material": 0,
          "mode": 4
        }
      ]
    }
  ],
  "nodes": [
    {
      "children": [
        1
      ],
      "matrix": [
        1.0,
        0.0,
        0.0,
        0.0,
        0.0,
        2.220446049250313e-16,
        -1.0,
        0.0,
        0.0,
        1.0,
        2.220446049250313e-16,
        0.0,
        0.0,
        0.0,
        0.0,
        1.0
      ],
      "name": "Sketchfab_model"
    },
    {
      "children": [
        2,
        4,
        6,
        8,
        10,
        12,
        14
      ],
      "matrix": [
        1.0,
        0.0,
        0.0,
        0.0,
        0.0,
        -4.371139006309477e-08,
        0.999999999999999,
        0.0,
        0.0,
        -0.999999999999999,
        -4.371139006309477e-08,
        0.0,
        0.0,
        0.0,
        0.0,
        1.0
      ],
      "name": "Collada visual scene group"
    },
    {
      "children": [
        3
      ],
      "name": "polySurface8"
    },
    {
      "mesh": 0,
      "name": "defaultMaterial"
    },
    {
      "children": [
        5
      ],
      "name": "polySurface8"
    },
    {
      "mesh": 1,
      "name": "defaultMaterial"
    },
    {
      "children": [
        7
      ],
      "name": "polySurface8"
    },
    {
      "mesh": 2,
      "name": "defaultMaterial"
    },
    {
      "children": [
        9
      ],
      "name": "polySurface8"
    },
    {
      "mesh": 3,
      "name": "defaultMaterial"
    },
    {
      "children": [
        11
      ],
      "name": "polySurface8"
    },
    {
      "mesh": 4,
      "name": "defaultMaterial"
    },
    {
      "children": [
        13
      ],
      "name": "polySurface8"
    },
    {
      "mesh": 5,
      "name": "defaultMaterial"
    },
    {
      "children": [
        15
      ],
      "name": "polySurface8"
    },
    {
      "mesh": 6,
      "name": "defaultMaterial"
    }
  ],
  "samplers": [
    {
      "magFilter": 9729,
      "minFilter": 9987,
      "wrapS": 10497,
      "wrapT": 10497
    }
  ],
  "scene": 0,
  "scenes": [
    {
      "name": "Sketchfab_Scene",
      "nodes": [
        0
      ]
    }
  ],
  "textures": [
    {
      "sampler": 0,
      "source": 0
    },
    {
      "sampler": 0,
      "source": 1
    },
    {
      "sampler": 0,
      "source": 2
    },
    {
      "sampler": 0,
      "source": 3
    },
    {
      "sampler": 0,
      "source": 4
    },
    {
      "sampler": 0,
      "source": 5
    },
    {
      "sampler": 0,
      "source": 6
    },
    {
      "sampler": 0,
      "source": 7
    },
    {
      "sampler": 0,
      "source": 8
    },
    {
      "sampler": 0,
      "source": 9
    },
    {
      "sampler": 0,
      "source": 10
    },
    {
      "sampler": 0,
      "source": 11
    },
    {
      "sampler": 0,
      "source": 12
    },
    {
      "sampler": 0,
      "source": 13
    },
    {
      "sampler": 0,
      "source": 14
    },
    {
      "sampler": 0,
      "source": 15
    },
    {
      "sampler": 0,
      "source": 16
    },
    {
      "sampler": 0,
      "source": 17
    },
    {
      "sampler": 0,
      "source": 18
    },
    {
      "sampler": 0,
      "source": 19
    },
    {
      "sampler": 0,
      "source": 20
    }
  ]
}
